HIERARCHY
ROOT pelvis
{
	OFFSET 0.000000 0.634141 -0.000000
	CHANNELS 6 Xposition Yposition Zposition Xrotation Yrotation Zrotation
	JOINT pelvis.R
	{
		OFFSET 0.000000 0.000000 0.000000
		CHANNELS 6 Xposition Yposition Zposition Xrotation Yrotation Zrotation
		JOINT thigh.R
		{
			OFFSET -0.090495 0.000000 0.000000
			CHANNELS 3 Xrotation Yrotation Zrotation
			JOINT shin.R
			{
				OFFSET 0.000000 -0.321631 0.005614
				CHANNELS 6 Xposition Yposition Zposition Xrotation Yrotation Zrotation
				JOINT foot.R
				{
					OFFSET 0.000000 -0.257147 -0.004489
					CHANNELS 3 Xrotation Yrotation Zrotation
					End Site
					{
						OFFSET 0.000000 -0.053189 0.125305
					}
				}
				JOINT heel.02.R
				{
					OFFSET 0.000000 -0.257147 -0.004489
					CHANNELS 3 Xrotation Yrotation Zrotation
					End Site
					{
						OFFSET 0.000000 -0.045053 -0.012072
					}
				}
			}
		}
	}
	JOINT pelvis.L
	{
		OFFSET 0.000000 0.000000 0.000000
		CHANNELS 6 Xposition Yposition Zposition Xrotation Yrotation Zrotation
		JOINT thigh.L
		{
			OFFSET 0.090495 0.000000 0.000000
			CHANNELS 3 Xrotation Yrotation Zrotation
			JOINT shin.L
			{
				OFFSET 0.000000 -0.328836 0.005740
				CHANNELS 6 Xposition Yposition Zposition Xrotation Yrotation Zrotation
				JOINT foot.L
				{
					OFFSET 0.000000 -0.250380 -0.004370
					CHANNELS 3 Xrotation Yrotation Zrotation
					End Site
					{
						OFFSET 0.000000 -0.056923 0.134103
					}
				}
				JOINT heel.02.L
				{
					OFFSET 0.000000 -0.250380 -0.004370
					CHANNELS 3 Xrotation Yrotation Zrotation
					End Site
					{
						OFFSET 0.000000 -0.047350 -0.012687
					}
				}
			}
		}
	}
	JOINT spine
	{
		OFFSET 0.000000 0.000000 0.000000
		CHANNELS 6 Xposition Yposition Zposition Xrotation Yrotation Zrotation
		JOINT spine.001
		{
			OFFSET 0.000000 0.248358 -0.000000
			CHANNELS 3 Xrotation Yrotation Zrotation
			JOINT neck
			{
				OFFSET 0.000000 0.248358 -0.000000
				CHANNELS 6 Xposition Yposition Zposition Xrotation Yrotation Zrotation
				JOINT face
				{
					OFFSET 0.000000 0.184942 -0.000000
					CHANNELS 6 Xposition Yposition Zposition Xrotation Yrotation Zrotation
					End Site
					{
						OFFSET 0.000000 -0.034202 0.093969
					}
				}
			}
			JOINT shoulder.R
			{
				OFFSET 0.000000 0.248358 -0.000000
				CHANNELS 6 Xposition Yposition Zposition Xrotation Yrotation Zrotation
				JOINT upper_arm.R
				{
					OFFSET -0.161783 0.000000 0.000000
					CHANNELS 6 Xposition Yposition Zposition Xrotation Yrotation Zrotation
					JOINT forearm.R
					{
						OFFSET -0.245184 0.000000 0.000000
						CHANNELS 6 Xposition Yposition Zposition Xrotation Yrotation Zrotation
						JOINT hand.R
						{
							OFFSET -0.213240 0.000000 0.003722
							CHANNELS 6 Xposition Yposition Zposition Xrotation Yrotation Zrotation
							JOINT thumb.carpal.R
							{
								OFFSET 0.000000 0.000000 0.000000
								CHANNELS 6 Xposition Yposition Zposition Xrotation Yrotation Zrotation
								JOINT thumb.01.R
								{
									OFFSET -0.022295 0.000000 0.022295
									CHANNELS 3 Xrotation Yrotation Zrotation
									JOINT thumb.02.R
									{
										OFFSET -0.022015 0.000000 0.022015
										CHANNELS 6 Xposition Yposition Zposition Xrotation Yrotation Zrotation
										JOINT thumb.03.R
										{
											OFFSET -0.017573 0.000000 0.017573
											CHANNELS 6 Xposition Yposition Zposition Xrotation Yrotation Zrotation
											End Site
											{
												OFFSET -0.013535 0.000000 0.013535
											}
										}
									}
								}
							}
							JOINT palm.01.R
							{
								OFFSET 0.000000 0.000000 0.000000
								CHANNELS 6 Xposition Yposition Zposition Xrotation Yrotation Zrotation
								JOINT f_index.01.R
								{
									OFFSET -0.073271 0.000000 0.022401
									CHANNELS 3 Xrotation Yrotation Zrotation
									JOINT f_index.02.R
									{
										OFFSET -0.035205 0.000000 0.000000
										CHANNELS 6 Xposition Yposition Zposition Xrotation Yrotation Zrotation
										JOINT f_index.03.R
										{
											OFFSET -0.019627 0.000000 0.000000
											CHANNELS 6 Xposition Yposition Zposition Xrotation Yrotation Zrotation
											End Site
											{
												OFFSET -0.013495 0.000000 0.000000
											}
										}
									}
								}
							}
							JOINT palm.02.R
							{
								OFFSET 0.000000 0.000000 0.000000
								CHANNELS 6 Xposition Yposition Zposition Xrotation Yrotation Zrotation
								JOINT f_middle.01.R
								{
									OFFSET -0.071527 0.000000 0.006887
									CHANNELS 3 Xrotation Yrotation Zrotation
									JOINT f_middle.02.R
									{
										OFFSET -0.035662 0.000000 0.000000
										CHANNELS 6 Xposition Yposition Zposition Xrotation Yrotation Zrotation
										JOINT f_middle.03.R
										{
											OFFSET -0.020080 0.000000 0.000000
											CHANNELS 6 Xposition Yposition Zposition Xrotation Yrotation Zrotation
											End Site
											{
												OFFSET -0.014773 0.000000 0.000000
											}
										}
									}
								}
							}
							JOINT palm.03.R
							{
								OFFSET 0.000000 0.000000 0.000000
								CHANNELS 6 Xposition Yposition Zposition Xrotation Yrotation Zrotation
								JOINT f_ring.01.R
								{
									OFFSET -0.066931 0.000000 -0.008574
									CHANNELS 3 Xrotation Yrotation Zrotation
									JOINT f_ring.02.R
									{
										OFFSET -0.032107 0.000000 0.000000
										CHANNELS 6 Xposition Yposition Zposition Xrotation Yrotation Zrotation
										JOINT f_ring.03.R
										{
											OFFSET -0.018478 0.000000 0.000000
											CHANNELS 6 Xposition Yposition Zposition Xrotation Yrotation Zrotation
											End Site
											{
												OFFSET -0.014043 0.000000 0.000000
											}
										}
									}
								}
							}
							JOINT palm.04.R
							{
								OFFSET 0.000000 0.000000 0.000000
								CHANNELS 6 Xposition Yposition Zposition Xrotation Yrotation Zrotation
								JOINT f_pinky.01.R
								{
									OFFSET -0.059646 0.000000 -0.020538
									CHANNELS 3 Xrotation Yrotation Zrotation
									JOINT f_pinky.02.R
									{
										OFFSET -0.025597 0.000000 0.000000
										CHANNELS 6 Xposition Yposition Zposition Xrotation Yrotation Zrotation
										JOINT f_pinky.03.R
										{
											OFFSET -0.014497 0.000000 0.000000
											CHANNELS 6 Xposition Yposition Zposition Xrotation Yrotation Zrotation
											End Site
											{
												OFFSET -0.011947 0.000000 0.000000
											}
										}
									}
								}
							}
						}
					}
				}
			}
			JOINT shoulder.L
			{
				OFFSET 0.000000 0.248358 -0.000000
				CHANNELS 6 Xposition Yposition Zposition Xrotation Yrotation Zrotation
				JOINT upper_arm.L
				{
					OFFSET 0.161783 0.000000 0.000000
					CHANNELS 6 Xposition Yposition Zposition Xrotation Yrotation Zrotation
					JOINT forearm.L
					{
						OFFSET 0.268645 0.000000 0.000000
						CHANNELS 6 Xposition Yposition Zposition Xrotation Yrotation Zrotation
						JOINT hand.L
						{
							OFFSET 0.230711 0.000000 0.004027
							CHANNELS 6 Xposition Yposition Zposition Xrotation Yrotation Zrotation
							JOINT thumb.carpal.L
							{
								OFFSET 0.000000 0.000000 0.000000
								CHANNELS 6 Xposition Yposition Zposition Xrotation Yrotation Zrotation
								JOINT thumb.01.L
								{
									OFFSET 0.025545 0.000000 0.025545
									CHANNELS 3 Xrotation Yrotation Zrotation
									JOINT thumb.02.L
									{
										OFFSET 0.021155 0.000000 0.021155
										CHANNELS 6 Xposition Yposition Zposition Xrotation Yrotation Zrotation
										JOINT thumb.03.L
										{
											OFFSET 0.017091 0.000000 0.017091
											CHANNELS 6 Xposition Yposition Zposition Xrotation Yrotation Zrotation
											End Site
											{
												OFFSET 0.013893 0.000000 0.013893
											}
										}
									}
								}
							}
							JOINT palm.01.L
							{
								OFFSET 0.000000 0.000000 0.000000
								CHANNELS 6 Xposition Yposition Zposition Xrotation Yrotation Zrotation
								JOINT f_index.01.L
								{
									OFFSET 0.074469 0.000000 0.022767
									CHANNELS 3 Xrotation Yrotation Zrotation
									JOINT f_index.02.L
									{
										OFFSET 0.031404 0.000000 0.000000
										CHANNELS 6 Xposition Yposition Zposition Xrotation Yrotation Zrotation
										JOINT f_index.03.L
										{
											OFFSET 0.017813 0.000000 0.000000
											CHANNELS 6 Xposition Yposition Zposition Xrotation Yrotation Zrotation
											End Site
											{
												OFFSET 0.012663 0.000000 0.000000
											}
										}
									}
								}
							}
							JOINT palm.02.L
							{
								OFFSET 0.000000 0.000000 0.000000
								CHANNELS 6 Xposition Yposition Zposition Xrotation Yrotation Zrotation
								JOINT f_middle.01.L
								{
									OFFSET 0.072749 0.000000 0.007005
									CHANNELS 3 Xrotation Yrotation Zrotation
									JOINT f_middle.02.L
									{
										OFFSET 0.033894 0.000000 0.000000
										CHANNELS 6 Xposition Yposition Zposition Xrotation Yrotation Zrotation
										JOINT f_middle.03.L
										{
											OFFSET 0.018311 0.000000 0.000000
											CHANNELS 6 Xposition Yposition Zposition Xrotation Yrotation Zrotation
											End Site
											{
												OFFSET 0.012434 0.000000 0.000000
											}
										}
									}
								}
							}
							JOINT palm.03.L
							{
								OFFSET 0.000000 0.000000 0.000000
								CHANNELS 6 Xposition Yposition Zposition Xrotation Yrotation Zrotation
								JOINT f_ring.01.L
								{
									OFFSET 0.068280 0.000000 -0.008747
									CHANNELS 3 Xrotation Yrotation Zrotation
									JOINT f_ring.02.L
									{
										OFFSET 0.031622 0.000000 0.000000
										CHANNELS 6 Xposition Yposition Zposition Xrotation Yrotation Zrotation
										JOINT f_ring.03.L
										{
											OFFSET 0.017377 0.000000 0.000000
											CHANNELS 6 Xposition Yposition Zposition Xrotation Yrotation Zrotation
											End Site
											{
												OFFSET 0.011992 0.000000 0.000000
											}
										}
									}
								}
							}
							JOINT palm.04.L
							{
								OFFSET 0.000000 0.000000 0.000000
								CHANNELS 6 Xposition Yposition Zposition Xrotation Yrotation Zrotation
								JOINT f_pinky.01.L
								{
									OFFSET 0.062428 0.000000 -0.021496
									CHANNELS 3 Xrotation Yrotation Zrotation
									JOINT f_pinky.02.L
									{
										OFFSET 0.025516 0.000000 0.000000
										CHANNELS 6 Xposition Yposition Zposition Xrotation Yrotation Zrotation
										JOINT f_pinky.03.L
										{
											OFFSET 0.014347 0.000000 0.000000
											CHANNELS 6 Xposition Yposition Zposition Xrotation Yrotation Zrotation
											End Site
											{
												OFFSET 0.010136 0.000000 0.000000
											}
										}
									}
								}
							}
						}
					}
				}
			}
		}
	}
}
MOTION
Frames: 4
Frame Time: 0.041667
0.010526 0.640856 0.049633 0.000000 0.016702 1.065481 0.000000 -0.000000 0.000000 -0.000000 -0.000000 -0.000000 3.976782 -0.139327 -2.668163 -0.000000 -0.321631 0.005614 3.206068 0.052088 4.945670 49.708051 -45.146943 1.541953 -17.026108 -12.855577 29.034308 0.000000 -0.000000 0.000000 0.000000 -0.000057 -0.000000 -1.843919 0.001594 1.173964 -0.000000 -0.328836 0.005740 11.319919 -0.108489 -1.330893 8.631568 -5.658577 -1.914962 21.710137 0.307649 -4.243324 0.000000 0.000000 -0.000000 -9.741520 0.202726 -2.378641 -0.000106 4.965218 -0.000012 0.000000 0.248358 -0.000000 0.434593 -17.247770 4.827396 0.000000 0.184942 -0.000000 5.411097 0.000004 -0.000001 -0.000000 0.248358 -0.000000 -0.000003 0.000004 8.840357 -0.161783 -0.000000 0.000000 -0.029862 24.268287 0.138890 -0.245184 -0.000000 -0.000000 204.460798 136.231238 -238.515096 -0.213240 -0.000000 0.003722 348.908958 11.005596 -6.327649 0.000000 -0.000000 -0.000000 -0.000001 -3.821903 -0.000004 25.373641 -24.015007 25.373596 -0.022015 0.000000 0.022015 5.371276 -30.483267 5.371265 -0.017573 0.000000 0.017573 19.935464 -31.991155 19.935473 0.000000 0.000000 -0.000000 1.494680 -13.792505 3.631590 3.950089 -12.405811 35.207081 -0.035205 -0.000000 -0.000000 23.493812 -4.663630 157.840590 -0.019627 0.000000 -0.000000 0.022080 -0.113564 22.009240 0.000000 -0.000000 0.000000 0.539445 -15.896024 2.317141 2.461712 -8.169612 33.489073 -0.035662 -0.000000 -0.000000 -1.974473 0.528461 150.035391 -0.020080 -0.000000 0.000000 -1.421602 6.775374 23.673919 0.000000 -0.000000 -0.000000 0.061150 -17.925201 2.023153 2.456102 -9.504242 28.919595 -0.032107 0.000000 -0.000000 -13.734455 3.621090 150.586465 -0.018478 -0.000000 0.000000 -182.212208 169.433634 203.587189 0.000000 0.000000 0.000000 -0.186411 -22.759316 1.212603 0.950258 -4.394103 24.394367 -0.025597 0.000000 0.000000 -56.136170 13.846043 154.344162 -0.014497 0.000000 0.000000 -1.951126 19.696365 11.204691 0.000000 0.248358 -0.000000 -0.000003 -0.000003 8.840425 0.161783 -0.000000 0.000000 -1.281881 -21.528531 -6.735230 0.268645 -0.000000 -0.000000 -293.533062 -56.946743 -257.929417 0.230711 -0.000000 0.004027 -353.386775 10.622545 21.541614 0.000000 -0.000000 0.000000 -0.000004 -5.927380 -0.000001 7.111993 15.636513 -7.111986 0.021155 -0.000000 0.021155 13.804021 26.472673 -13.804013 0.017091 -0.000000 0.017091 6.607263 28.151980 -6.607240 0.000000 0.000000 0.000000 0.372748 1.332640 -1.178677 358.886744 15.929801 7.944416 0.031404 -0.000000 0.000000 -26.333478 -343.192281 -244.546891 0.017813 0.000000 -0.000000 179.372352 171.210112 188.153011 0.000000 -0.000000 0.000000 -0.038767 5.091726 0.276603 719.810633 -348.985101 1.964273 0.033894 0.000000 -0.000000 1238.617103 -549.782635 -768.767188 0.018311 0.000000 -0.000000 539.102241 -190.203543 -169.969818 0.000000 -0.000000 0.000000 0.037384 8.750951 0.717545 720.319564 3.643091 -370.022247 0.031622 -0.000000 -0.000000 1073.969547 361.793918 -573.106748 0.017377 -0.000000 -0.000000 -0.461720 2.701663 19.393386 0.000000 0.000000 0.000000 360.106889 15.607045 360.491292 179.057767 189.032466 -191.886488 0.025516 -0.000000 -0.000000 233.790327 -164.129309 -30.732423 0.014347 0.000000 -0.000000 1.544804 -12.700236 13.814865 
0.010191 0.640866 0.049373 0.000000 -0.205761 1.006373 -0.000000 -0.000000 -0.000000 0.000000 0.000000 0.000000 3.967642 -0.133716 -2.564630 0.000000 -0.321631 0.005614 2.890028 0.038240 4.920083 50.229378 -45.334179 1.767014 -17.930908 -13.165240 29.106151 -0.000000 -0.000000 -0.000000 0.000000 -0.000057 -0.000038 -1.619801 0.004243 1.278863 -0.000000 -0.328836 0.005740 10.833789 -0.108336 -1.402452 9.518628 -5.582467 -1.841111 21.990276 0.321458 -4.589045 -0.000000 -0.000000 -0.000000 -9.487819 0.185572 -2.235910 -0.000043 6.099484 -0.000012 -0.000000 0.248358 -0.000000 -0.299349 -18.856248 4.505267 -0.000000 0.184942 -0.000000 5.704950 0.000000 -0.000000 -0.000000 0.248358 -0.000000 -0.000004 0.000002 8.843981 -0.161783 0.000000 -0.000000 -0.655476 21.671157 3.423580 -0.245184 -0.000000 -0.000000 213.007277 137.531118 -256.825413 -0.213240 -0.000000 0.003722 331.275076 9.777803 -0.176424 -0.000000 -0.000000 -0.000000 -0.000003 1.973606 -0.000003 22.987024 -30.066076 22.986966 -0.022015 0.000000 0.022015 -16.506173 -31.714474 -16.506177 -0.017573 0.000000 0.017573 3.367999 -50.057808 3.367976 0.000000 -0.000000 -0.000000 -0.798728 -8.223674 -2.161442 -0.068659 -17.848008 -0.437296 -0.035205 -0.000000 0.000000 21.024876 1.855118 189.972764 -0.019627 0.000000 0.000000 -0.030788 7.090912 0.496890 0.000000 -0.000000 -0.000000 -1.053147 -10.455610 -5.653220 2.076567 -18.978459 12.376440 -0.035662 -0.000000 0.000000 58.408397 -3.794709 173.216835 -0.020080 -0.000000 0.000000 0.807799 -6.768983 13.595410 -0.000000 -0.000000 -0.000000 0.096617 -13.291337 -8.197367 -0.123521 -14.191633 -0.992294 -0.032107 -0.000000 -0.000000 86.826717 3.076228 183.251421 -0.018478 -0.000000 -0.000000 -179.500732 189.113759 186.258057 0.000000 0.000000 -0.000000 2.107973 -19.625387 -11.530479 -0.098294 -1.903189 -5.912427 -0.025597 -0.000000 -0.000000 101.289458 19.668354 196.181966 -0.014497 0.000000 -0.000000 -0.083606 -8.527656 -1.121389 -0.000000 0.248358 -0.000000 -0.000005 0.000015 8.843889 0.161783 -0.000000 -0.000000 -1.321192 -18.487669 -8.104768 0.268645 -0.000000 -0.000000 -282.845018 -55.048859 -245.012327 0.230711 0.000000 0.004027 -359.830293 5.207902 17.360124 -0.000000 -0.000000 0.000000 -0.000005 -2.162471 0.000004 6.005623 16.460003 -6.005614 0.021155 -0.000000 0.021155 6.821429 34.014158 -6.821410 0.017091 -0.000000 0.017091 3.537599 28.344725 -3.537593 -0.000000 0.000000 0.000000 -0.493830 6.466948 1.386813 359.712404 -2.596077 -12.641940 0.031404 0.000000 0.000000 -22.013264 -350.110333 -227.961388 0.017813 -0.000000 -0.000000 179.790291 174.551044 184.404808 -0.000000 -0.000000 0.000000 -0.259441 8.311872 1.546244 719.824293 -361.789765 -11.214273 0.033894 -0.000000 -0.000000 1245.788911 -545.192694 -759.979849 0.018311 -0.000000 -0.000000 539.892248 -190.943471 -178.875059 -0.000000 -0.000000 0.000000 0.075850 11.119385 2.434552 719.446939 -3.488552 -378.012858 0.031622 -0.000000 -0.000000 1087.257161 358.166186 -568.328238 0.017377 0.000000 -0.000000 -0.888390 9.199871 11.008191 -0.000000 -0.000000 -0.000000 360.749883 18.698673 363.935210 176.307318 196.678070 -204.806105 0.025516 0.000000 0.000000 261.430381 -159.200522 -24.076965 0.014347 -0.000000 0.000000 0.708532 -4.460044 18.044561 
0.009785 0.641123 0.047839 -0.000000 -0.620675 0.916205 -0.000000 0.000000 0.000000 -0.000000 0.000000 -0.000000 3.575471 -0.118730 -2.437805 0.000000 -0.321631 0.005614 3.329701 0.057414 4.944457 48.834244 -45.340930 1.184083 -17.537544 -13.145371 29.322999 -0.000000 0.000000 0.000000 -0.000000 0.000075 -0.000038 -1.506759 0.006032 1.400494 -0.000000 -0.328836 0.005740 10.284418 -0.110642 -1.527638 10.690906 -5.178427 -1.649130 23.094379 0.291819 -4.833745 -0.000000 0.000000 -0.000000 -8.967579 0.158657 -2.023056 -0.000057 5.924980 -0.000003 0.000000 0.248358 -0.000000 -1.082238 -18.925302 4.008243 -0.000000 0.184942 -0.000000 5.905716 -0.000006 0.000000 -0.000000 0.248358 -0.000000 -0.000002 0.000002 8.182107 -0.161783 0.000000 -0.000000 -1.370485 19.742284 7.863956 -0.245184 0.000000 -0.000000 224.050258 133.712100 -268.804062 -0.213240 -0.000000 0.003722 312.578307 15.468802 1.276345 0.000000 -0.000000 -0.000000 -0.000001 0.782670 0.000002 -1.362928 -25.290254 -1.362954 -0.022015 -0.000000 0.022015 -16.727570 -26.128786 -16.727576 -0.017573 0.000000 0.017573 53.205323 -62.509639 53.205309 0.000000 0.000000 0.000000 -5.100780 0.077466 -16.611138 25.768910 -42.193603 61.327872 -0.035205 -0.000000 0.000000 34.999672 -30.674724 97.961203 -0.019627 0.000000 0.000000 -2.464686 13.889900 20.030583 0.000000 0.000000 0.000000 -2.660732 0.167821 -27.518970 37.521234 -42.927664 81.646087 -0.035662 0.000000 -0.000000 40.573455 -32.312078 103.828144 -0.020080 -0.000000 0.000000 8.469519 -12.829877 66.736337 0.000000 -0.000000 0.000000 3.515106 -3.992375 -36.276955 35.334119 -35.847155 89.118519 -0.032107 0.000000 0.000000 34.569466 -24.970801 109.129511 -0.018478 -0.000000 0.000000 -170.818619 192.970589 250.471015 0.000000 0.000000 0.000000 9.807222 -13.957194 -40.639246 23.393678 -23.232713 90.406713 -0.025597 -0.000000 -0.000000 9.939261 -8.105345 101.653063 -0.014497 -0.000000 -0.000000 -5.416301 10.073682 56.443331 0.000000 0.248358 -0.000000 0.000003 -0.000067 8.182135 0.161783 0.000000 0.000000 -1.095095 -15.549262 -8.007989 0.268645 -0.000000 -0.000000 -277.341361 -51.140051 -235.725784 0.230711 0.000000 0.004027 -360.305074 8.731017 25.411495 -0.000000 -0.000000 -0.000000 -0.000001 -6.151188 -0.000001 8.487378 16.763791 -8.487371 0.021155 -0.000000 0.021155 -2.286326 42.783567 2.286341 0.017091 -0.000000 0.017091 2.586481 32.794405 -2.586473 -0.000000 0.000000 -0.000000 1.271403 1.446110 -4.007651 359.148586 -10.300611 -9.425305 0.031404 -0.000000 -0.000000 43.366077 -366.137454 -195.358259 0.017813 -0.000000 0.000000 179.113638 174.344281 197.800106 0.000000 -0.000000 -0.000000 0.372403 4.770000 -2.710101 716.903103 -375.382306 -22.638280 0.033894 -0.000000 0.000000 1418.561770 -524.164235 -723.016286 0.018311 -0.000000 -0.000000 544.061505 -150.155808 -164.842080 0.000000 -0.000000 -0.000000 -0.038214 9.123353 -0.782780 716.476845 -14.868041 -386.525787 0.031622 0.000000 0.000000 1242.786469 342.276325 -542.703663 0.017377 0.000000 0.000000 4.657661 -29.026224 17.856765 -0.000000 0.000000 -0.000000 360.436241 17.290023 362.149580 172.853496 207.992921 -208.128923 0.025516 -0.000000 0.000000 353.072887 -141.998991 -2.387836 0.014347 -0.000000 -0.000000 3.656968 -32.219099 12.615002 
0.009476 0.641141 0.047271 -0.000000 -0.641221 0.884350 0.000000 0.000000 -0.000000 0.000000 0.000000 -0.000000 3.530687 -0.113265 -2.344286 -0.000000 -0.321631 0.005614 3.606776 0.071014 5.060803 47.507579 -45.500777 0.632244 -14.755381 -12.618453 30.063720 0.000000 0.000000 -0.000000 -0.000000 -0.000038 -0.000038 -1.413412 0.007588 1.483098 -0.000000 -0.328836 0.005740 9.852673 -0.112599 -1.640408 10.687721 -5.358022 -1.706562 24.259850 0.239078 -4.766054 0.000000 0.000000 -0.000000 -8.949044 0.160878 -2.055641 -0.000050 6.177604 -0.000002 0.000000 0.248358 -0.000000 -0.658266 -19.809213 4.125314 0.000000 0.184942 -0.000000 5.731531 -0.000009 -0.000002 -0.000000 0.248358 -0.000000 -0.000003 0.000006 8.205116 -0.161783 -0.000000 -0.000000 -1.530228 19.783001 8.758946 -0.245184 0.000000 -0.000000 226.774261 132.117319 -270.344543 -0.213240 -0.000000 0.003722 332.679335 18.335844 -8.226624 -0.000000 0.000000 0.000000 -0.000002 -0.205833 -0.000003 3.610617 -23.950782 3.610581 -0.022015 0.000000 0.022015 -9.675152 -39.790452 -9.675154 -0.017573 0.000000 0.017573 5.895891 -55.824755 5.895883 -0.000000 -0.000000 0.000000 -5.757991 -1.612464 -17.949264 26.561781 -39.607335 66.488750 -0.035205 -0.000000 -0.000000 45.204214 -29.432757 115.503362 -0.019627 -0.000000 -0.000000 18.661788 -24.085942 75.205280 -0.000000 -0.000000 0.000000 -2.870977 -3.390621 -22.579096 31.631856 -37.246394 80.100757 -0.035662 0.000000 -0.000000 38.139308 -25.013742 114.625109 -0.020080 -0.000000 0.000000 24.691448 -26.215427 86.455332 -0.000000 -0.000000 0.000000 1.901481 -6.556374 -26.187336 30.250846 -34.251117 82.515850 -0.032107 0.000000 -0.000000 27.088056 -18.923164 110.647541 -0.018478 0.000000 -0.000000 -165.141311 196.969009 262.315601 -0.000000 0.000000 0.000000 6.716148 -14.044033 -28.510948 14.319610 -17.406968 78.742997 -0.025597 -0.000000 0.000000 -1.481553 1.120633 105.794091 -0.014497 -0.000000 -0.000000 -9.522116 14.530912 66.312333 0.000000 0.248358 -0.000000 0.000002 -0.000031 8.205091 0.161783 -0.000000 -0.000000 -1.138721 -16.669403 -7.761042 0.268645 -0.000000 -0.000000 -277.904551 -50.112893 -235.048803 0.230711 -0.000000 0.004027 -371.435195 2.769851 22.932975 0.000000 0.000000 0.000000 -0.000001 -3.286936 0.000001 15.813109 15.201271 -15.813095 0.021155 0.000000 0.021155 -6.037217 37.666287 6.037226 0.017091 -0.000000 0.017091 12.746224 25.810887 -12.746204 -0.000000 0.000000 -0.000000 0.636222 1.509533 -2.002871 359.820677 -2.074710 -9.880874 0.031404 -0.000000 -0.000000 63.776632 -362.747221 -184.414206 0.017813 -0.000000 0.000000 181.782903 188.296527 204.217370 0.000000 0.000000 -0.000000 -0.315063 4.129149 2.388668 719.200287 -363.406143 -26.418963 0.033894 -0.000000 0.000000 1508.193851 -530.330311 -713.445497 0.018311 -0.000000 -0.000000 533.366139 -158.400925 -213.800822 0.000000 -0.000000 -0.000000 0.401425 7.093511 6.017335 720.306013 1.392787 -384.778379 0.031622 0.000000 0.000000 1294.885295 349.145965 -536.580535 0.017377 0.000000 0.000000 -0.800716 -33.290004 -2.677842 0.000000 0.000000 0.000000 362.274927 13.630711 369.680902 177.965988 189.622662 -203.818664 0.025516 0.000000 0.000000 387.805300 -150.631708 7.422407 0.014347 -0.000000 -0.000000 1.713169 -27.047259 7.114291 
